<mxfile host="Electron" modified="2024-06-08T17:00:36.181Z" agent="Mozilla/5.0 (Windows NT 10.0; Win64; x64) AppleWebKit/537.36 (KHTML, like Gecko) draw.io/24.4.13 Chrome/124.0.6367.207 Electron/30.0.6 Safari/537.36" etag="G6qdRAh6S7a1SHt_lJCB" version="24.4.13" type="device">
  <diagram id="C5RBs43oDa-KdzZeNtuy" name="Page-1">
    <mxGraphModel dx="1296" dy="778" grid="1" gridSize="10" guides="1" tooltips="1" connect="1" arrows="1" fold="1" page="1" pageScale="1" pageWidth="827" pageHeight="1169" math="0" shadow="0">
      <root>
        <mxCell id="WIyWlLk6GJQsqaUBKTNV-0" />
        <mxCell id="WIyWlLk6GJQsqaUBKTNV-1" parent="WIyWlLk6GJQsqaUBKTNV-0" />
        <mxCell id="TJ1zNtxXloIf5U0kijpT-3" style="edgeStyle=orthogonalEdgeStyle;rounded=0;orthogonalLoop=1;jettySize=auto;html=1;entryX=0;entryY=0.5;entryDx=0;entryDy=0;strokeWidth=6;" edge="1" parent="WIyWlLk6GJQsqaUBKTNV-1" source="TJ1zNtxXloIf5U0kijpT-1" target="TJ1zNtxXloIf5U0kijpT-2">
          <mxGeometry relative="1" as="geometry" />
        </mxCell>
        <mxCell id="TJ1zNtxXloIf5U0kijpT-21" style="edgeStyle=orthogonalEdgeStyle;rounded=0;orthogonalLoop=1;jettySize=auto;html=1;entryX=0;entryY=0.5;entryDx=0;entryDy=0;strokeWidth=6;" edge="1" parent="WIyWlLk6GJQsqaUBKTNV-1" source="TJ1zNtxXloIf5U0kijpT-1" target="TJ1zNtxXloIf5U0kijpT-19">
          <mxGeometry relative="1" as="geometry" />
        </mxCell>
        <mxCell id="TJ1zNtxXloIf5U0kijpT-1" value="Source Code" style="rounded=1;whiteSpace=wrap;html=1;fontSize=36;strokeWidth=6;" vertex="1" parent="WIyWlLk6GJQsqaUBKTNV-1">
          <mxGeometry x="6" y="190" width="390" height="130" as="geometry" />
        </mxCell>
        <mxCell id="TJ1zNtxXloIf5U0kijpT-16" style="edgeStyle=orthogonalEdgeStyle;rounded=0;orthogonalLoop=1;jettySize=auto;html=1;entryX=0;entryY=0.5;entryDx=0;entryDy=0;strokeWidth=6;" edge="1" parent="WIyWlLk6GJQsqaUBKTNV-1" source="TJ1zNtxXloIf5U0kijpT-2" target="TJ1zNtxXloIf5U0kijpT-15">
          <mxGeometry relative="1" as="geometry" />
        </mxCell>
        <mxCell id="TJ1zNtxXloIf5U0kijpT-25" style="edgeStyle=orthogonalEdgeStyle;rounded=0;orthogonalLoop=1;jettySize=auto;html=1;entryX=0;entryY=0.5;entryDx=0;entryDy=0;strokeWidth=6;" edge="1" parent="WIyWlLk6GJQsqaUBKTNV-1" source="TJ1zNtxXloIf5U0kijpT-2" target="TJ1zNtxXloIf5U0kijpT-4">
          <mxGeometry relative="1" as="geometry" />
        </mxCell>
        <mxCell id="TJ1zNtxXloIf5U0kijpT-2" value="Tokenizer" style="rounded=1;whiteSpace=wrap;html=1;fontSize=36;strokeWidth=6;" vertex="1" parent="WIyWlLk6GJQsqaUBKTNV-1">
          <mxGeometry x="526" y="190" width="390" height="130" as="geometry" />
        </mxCell>
        <mxCell id="TJ1zNtxXloIf5U0kijpT-7" style="edgeStyle=orthogonalEdgeStyle;rounded=0;orthogonalLoop=1;jettySize=auto;html=1;entryX=0;entryY=0.5;entryDx=0;entryDy=0;strokeWidth=6;" edge="1" parent="WIyWlLk6GJQsqaUBKTNV-1" source="TJ1zNtxXloIf5U0kijpT-4" target="TJ1zNtxXloIf5U0kijpT-6">
          <mxGeometry relative="1" as="geometry" />
        </mxCell>
        <mxCell id="TJ1zNtxXloIf5U0kijpT-4" value="Abstract Syntax Tree" style="rounded=1;whiteSpace=wrap;html=1;fontSize=36;strokeWidth=6;" vertex="1" parent="WIyWlLk6GJQsqaUBKTNV-1">
          <mxGeometry x="1046" y="190" width="390" height="130" as="geometry" />
        </mxCell>
        <mxCell id="TJ1zNtxXloIf5U0kijpT-10" style="edgeStyle=orthogonalEdgeStyle;rounded=0;orthogonalLoop=1;jettySize=auto;html=1;entryX=0;entryY=0.5;entryDx=0;entryDy=0;strokeWidth=6;" edge="1" parent="WIyWlLk6GJQsqaUBKTNV-1" source="TJ1zNtxXloIf5U0kijpT-6" target="TJ1zNtxXloIf5U0kijpT-8">
          <mxGeometry relative="1" as="geometry" />
        </mxCell>
        <mxCell id="TJ1zNtxXloIf5U0kijpT-6" value="Semantic Checks" style="rounded=1;whiteSpace=wrap;html=1;fontSize=36;strokeWidth=6;" vertex="1" parent="WIyWlLk6GJQsqaUBKTNV-1">
          <mxGeometry x="1566" y="190" width="390" height="130" as="geometry" />
        </mxCell>
        <mxCell id="TJ1zNtxXloIf5U0kijpT-8" value="Codegen" style="rounded=1;whiteSpace=wrap;html=1;fontSize=36;strokeWidth=6;" vertex="1" parent="WIyWlLk6GJQsqaUBKTNV-1">
          <mxGeometry x="2086" y="190" width="390" height="130" as="geometry" />
        </mxCell>
        <mxCell id="TJ1zNtxXloIf5U0kijpT-24" style="edgeStyle=orthogonalEdgeStyle;rounded=0;orthogonalLoop=1;jettySize=auto;html=1;entryX=0;entryY=0.5;entryDx=0;entryDy=0;strokeWidth=6;" edge="1" parent="WIyWlLk6GJQsqaUBKTNV-1" source="TJ1zNtxXloIf5U0kijpT-15" target="TJ1zNtxXloIf5U0kijpT-4">
          <mxGeometry relative="1" as="geometry" />
        </mxCell>
        <mxCell id="TJ1zNtxXloIf5U0kijpT-15" value="Macros" style="rounded=1;whiteSpace=wrap;html=1;fontSize=36;strokeWidth=6;" vertex="1" parent="WIyWlLk6GJQsqaUBKTNV-1">
          <mxGeometry x="780" y="360" width="390" height="130" as="geometry" />
        </mxCell>
        <mxCell id="TJ1zNtxXloIf5U0kijpT-22" style="edgeStyle=orthogonalEdgeStyle;rounded=0;orthogonalLoop=1;jettySize=auto;html=1;exitX=0.5;exitY=0;exitDx=0;exitDy=0;entryX=0;entryY=0.5;entryDx=0;entryDy=0;strokeWidth=6;" edge="1" parent="WIyWlLk6GJQsqaUBKTNV-1" source="TJ1zNtxXloIf5U0kijpT-19" target="TJ1zNtxXloIf5U0kijpT-2">
          <mxGeometry relative="1" as="geometry" />
        </mxCell>
        <mxCell id="TJ1zNtxXloIf5U0kijpT-19" value="Macros" style="rounded=1;whiteSpace=wrap;html=1;fontSize=36;strokeWidth=6;" vertex="1" parent="WIyWlLk6GJQsqaUBKTNV-1">
          <mxGeometry x="260" y="360" width="390" height="130" as="geometry" />
        </mxCell>
      </root>
    </mxGraphModel>
  </diagram>
</mxfile>
